<?xml version="1.0" standalone="no"?>
<!DOCTYPE svg PUBLIC "-//W3C//DTD SVG 20010904//EN"
 "http://www.w3.org/TR/2001/REC-SVG-20010904/DTD/svg10.dtd">
<svg version="1.0" xmlns="http://www.w3.org/2000/svg"
 width="1024.000000pt" height="1024.000000pt" viewBox="0 0 1024.000000 1024.000000"
 preserveAspectRatio="xMidYMid meet">

<g transform="translate(0.000000,1024.000000) scale(0.100000,-0.100000)"
fill="#000000" stroke="none">
<path d="M0 5120 l0 -5120 5120 0 5120 0 0 5120 0 5120 -5120 0 -5120 0 0
-5120z m3898 2313 c22 -32 132 -290 292 -683 589 -1450 630 -1553 845 -2104
l77 -198 29 68 c15 38 71 177 123 309 52 132 118 296 146 365 29 69 103 251
165 405 62 154 123 303 135 330 20 46 132 320 265 650 29 72 90 220 135 330
45 110 93 227 106 260 54 140 102 248 120 271 l19 25 537 -3 537 -3 -93 -205
c-51 -113 -144 -317 -206 -455 -62 -137 -126 -279 -142 -315 -17 -36 -58 -128
-93 -205 -163 -365 -600 -1327 -783 -1725 -136 -297 -459 -996 -499 -1080 -20
-41 -46 -97 -58 -125 -12 -27 -46 -99 -74 -158 -28 -60 -99 -214 -157 -343
-117 -256 -136 -284 -203 -284 -20 0 -47 7 -59 16 -29 20 -34 30 -407 829
-174 374 -387 829 -472 1010 -281 597 -1273 2796 -1354 2998 l-19 47 534 0
535 0 19 -27z"/>
<path d="M3712 5778 c76 -179 375 -819 546 -1168 492 -1005 497 -1014 632
-1195 25 -33 74 -113 109 -178 47 -84 70 -117 83 -117 37 0 31 33 -36 168 -36
76 -66 144 -66 152 0 8 32 -34 70 -93 59 -91 74 -108 93 -105 14 2 21 9 19 20
-5 31 -291 559 -502 928 -43 74 -152 266 -243 425 -306 537 -443 771 -572 980
-37 61 -88 143 -112 183 -24 39 -46 72 -48 72 -2 0 10 -33 27 -72z"/>
</g>
</svg>
